<svg width="17" height="16" viewBox="0 0 17 16" fill="none" xmlns="http://www.w3.org/2000/svg">
<path d="M12.0088 0C11.2185 0 10.4632 0.181175 9.76379 0.538528C9.28771 0.781738 8.85036 1.10488 8.47512 1.48827C8.09984 1.10488 7.66252 0.781738 7.18645 0.538528C6.48705 0.181175 5.7317 0 4.94136 0C2.21671 0 0 2.21671 0 4.9414C0 6.87124 1.01922 8.92089 3.0293 11.0335C4.70762 12.7974 6.76241 14.2678 8.1906 15.1907L8.47512 15.3745L8.75964 15.1907C10.1878 14.2678 12.2426 12.7974 13.921 11.0335C15.9311 8.92089 16.9502 6.87124 16.9502 4.9414C16.9502 2.21671 14.7335 0 12.0088 0ZM13.1614 10.3107C11.6614 11.8871 9.83439 13.2273 8.47512 14.1242C7.11585 13.2273 5.28879 11.8871 3.78888 10.3107C1.97046 8.39966 1.04847 6.59315 1.04847 4.9414C1.04847 2.79483 2.79483 1.04847 4.9414 1.04847C6.17722 1.04847 7.31247 1.61614 8.05597 2.6059L8.47512 3.16386L8.89426 2.6059C9.63776 1.61614 10.773 1.04847 12.0088 1.04847C14.1554 1.04847 15.9018 2.79483 15.9018 4.9414C15.9018 6.59315 14.9797 8.39966 13.1614 10.3107Z" fill="white"/>
</svg>
