<svg width="378" height="99" viewBox="0 0 378 99" fill="none" xmlns="http://www.w3.org/2000/svg">
<rect width="378" height="99" rx="49.5" fill="url(#paint0_linear)"/>
<path d="M123.668 39.1211V65H119.117V39.1211H112.184V34.8438H130.582V39.1211H123.668ZM137.965 34.8438L146.305 55.7422L154.762 34.8438H159.742L146.207 67.2656L132.984 34.8438H137.965ZM162.457 65L168.805 32.5781L179.156 56.0156L189.879 32.5781L195.582 65H190.914L188.004 46.7969L179.078 66.3867L170.406 46.7773L167.164 65H162.457ZM215.172 45.9766H219.586V65H215.172V63.0078C213.362 64.7005 211.415 65.5469 209.332 65.5469C206.702 65.5469 204.527 64.5964 202.809 62.6953C201.103 60.7552 200.25 58.3333 200.25 55.4297C200.25 52.5781 201.103 50.2018 202.809 48.3008C204.514 46.3997 206.65 45.4492 209.215 45.4492C211.428 45.4492 213.414 46.3607 215.172 48.1836V45.9766ZM204.742 55.4297C204.742 57.2526 205.23 58.737 206.207 59.8828C207.21 61.0417 208.473 61.6211 209.996 61.6211C211.624 61.6211 212.939 61.0612 213.941 59.9414C214.944 58.7826 215.445 57.3112 215.445 55.5273C215.445 53.7435 214.944 52.2721 213.941 51.1133C212.939 49.9805 211.637 49.4141 210.035 49.4141C208.525 49.4141 207.262 49.987 206.246 51.1328C205.243 52.2917 204.742 53.724 204.742 55.4297ZM231.441 60.8594H242.75V65H222.73L235.055 50.0781H225.348V45.9766H243.746L231.441 60.8594ZM264.215 56.5234H250.582C250.699 58.0859 251.207 59.3294 252.105 60.2539C253.004 61.1654 254.156 61.6211 255.562 61.6211C256.656 61.6211 257.561 61.3607 258.277 60.8398C258.98 60.319 259.781 59.3555 260.68 57.9492L264.391 60.0195C263.818 60.9961 263.212 61.8359 262.574 62.5391C261.936 63.2292 261.253 63.8021 260.523 64.2578C259.794 64.7005 259.007 65.026 258.16 65.2344C257.314 65.4427 256.396 65.5469 255.406 65.5469C252.568 65.5469 250.289 64.6354 248.57 62.8125C246.852 60.9766 245.992 58.5417 245.992 55.5078C245.992 52.5 246.826 50.0651 248.492 48.2031C250.172 46.3672 252.398 45.4492 255.172 45.4492C257.971 45.4492 260.185 46.3411 261.812 48.125C263.427 49.8958 264.234 52.3503 264.234 55.4883L264.215 56.5234ZM259.703 52.9297C259.091 50.5859 257.613 49.4141 255.27 49.4141C254.736 49.4141 254.234 49.4987 253.766 49.668C253.297 49.8242 252.867 50.0586 252.477 50.3711C252.099 50.6706 251.773 51.0352 251.5 51.4648C251.227 51.8945 251.018 52.3828 250.875 52.9297H259.703Z" fill="white"/>
<defs>
<linearGradient id="paint0_linear" x1="73.5" y1="11.5" x2="210" y2="68.5" gradientUnits="userSpaceOnUse">
<stop stop-color="#F12711"/>
<stop offset="1" stop-color="#F5AF19"/>
</linearGradient>
</defs>
</svg>
