<svg width="17" height="16" viewBox="0 0 17 16" fill="none" xmlns="http://www.w3.org/2000/svg">
<path d="M16.78 5.67179C16.78 2.97447 14.5855 0.780029 11.8882 0.780029C11.1059 0.780029 10.3581 0.959385 9.66571 1.31315C9.19442 1.55391 8.76146 1.87381 8.38999 2.25338C8.01851 1.87381 7.58555 1.55395 7.11426 1.31315C6.42189 0.959385 5.67412 0.780029 4.89176 0.780029C2.19444 0.780029 0 2.97447 0 5.67179C0 7.58222 1.00894 9.61131 2.99888 11.7027C4.66034 13.4489 6.69448 14.9045 8.10836 15.8181L8.39002 16.0001L8.67172 15.8181C8.98725 15.6142 9.30116 15.4042 9.60859 15.1917C10.3061 15.6405 11.1357 15.9012 12.025 15.9012C14.4942 15.9012 16.503 13.8924 16.503 11.4232C16.503 10.5439 16.2481 9.72317 15.8086 9.03059C16.4532 7.88062 16.78 6.75207 16.78 5.67179ZM12.025 14.8632C10.1281 14.8632 8.58491 13.32 8.58491 11.4232C8.58491 9.52631 10.1281 7.9831 12.025 7.9831C13.9218 7.9831 15.465 9.52631 15.465 11.4232C15.465 13.32 13.9218 14.8632 12.025 14.8632ZM8.38999 14.7624C7.04434 13.8744 5.23566 12.5478 3.75079 10.9872C1.9507 9.09532 1.03794 7.30696 1.03794 5.67179C1.03794 3.54679 2.76676 1.81797 4.89176 1.81797C6.11518 1.81797 7.23902 2.37994 7.97505 3.35975L8.38999 3.91211L8.80492 3.35975C9.54095 2.37994 10.6648 1.81797 11.8882 1.81797C14.0132 1.81797 15.742 3.54679 15.742 5.67179C15.742 6.46332 15.5239 7.29941 15.0931 8.16457C14.291 7.40898 13.2112 6.9452 12.025 6.9452C9.55583 6.9452 7.54701 8.95402 7.54701 11.4232C7.54701 12.6151 8.01519 13.6997 8.77721 14.5029C8.64885 14.5901 8.5198 14.6767 8.38999 14.7624Z" fill="white"/>
<path d="M9.89453 10.9041V11.423V11.942H14.1581V11.423V10.9041H9.89453Z" fill="white"/>
</svg>
